<?xml version="1.0" encoding="UTF-8" standalone="no"?>
<svg width="80px" height="80px" viewBox="0 0 80 80" version="1.1" xmlns="http://www.w3.org/2000/svg" xmlns:xlink="http://www.w3.org/1999/xlink">
    <!-- Generator: Sketch 40.3 (33839) - http://www.bohemiancoding.com/sketch -->
    <title>logo</title>
    <desc>Created with Sketch.</desc>
    <defs></defs>
    <g id="Landing" stroke="none" stroke-width="1" fill="none" fill-rule="evenodd">
        <g id="SnapSlack-—-Landing" transform="translate(-680.000000, -40.000000)">
            <g id="top">
                <g id="logo" transform="translate(680.000000, 40.000000)">
                    <path d="M76.6517002,29.0040421 C68.4047318,1.51542686 56.4926574,-4.89866867 29.0040421,3.34829975 C1.51542686,11.5952682 -4.89866867,23.5073426 3.34829975,50.9959579 C11.5952682,78.4845731 23.5073426,84.8986687 50.9959579,76.6517002 C78.4845731,68.4047318 84.8986687,56.4926574 76.6517002,29.0040421 L76.6517002,29.0040421 Z" id="Fill-11" fill="#FFFFFF"></path>
                    <g id="ghost" transform="translate(14.000000, 26.000000)">
                        <path d="M38.2077373,0.342607262 C39.0996911,0.119065318 40.0355398,0 41,0 C47.0646667,0 52,4.70983333 52,10.5 L52,26.25 C52,27.2148333 51.1762222,28 50.1666667,28 L49.5555556,28 C48.5447778,28 47.7222222,27.2148333 47.7222222,26.25 C47.7222222,25.928 47.4472222,25.6666667 47.1111111,25.6666667 C46.7737778,25.6666667 46.5,25.928 46.5,26.25 C46.5,27.2148333 45.6762222,28 44.6666667,28 L43.7875595,28 C43.9231237,27.7386276 44,27.440796 44,27.125 L44,15.5419474 C44.4179209,15.829397 44.9373501,16 45.5,16 C46.87875,16 48,14.9737143 48,13.7142857 L48,10.2857143 C48,9.024 46.87875,8 45.5,8 C44.8795959,8 44.3117409,8.20696221 43.8745769,8.54944241 C43.345851,4.99827218 41.1877741,1.98767863 38.2077373,0.342607262 Z M44,12 C44.5522847,12 45,12.4477153 45,13 C45,13.5522847 44.5522847,14 44,14 L44,12 Z" id="Combined-Shape" fill="#6CCCDD" opacity="0.300000012"></path>
                        <path d="M28.2077373,0.342607262 C29.0996911,0.119065318 30.0355398,0 31,0 C37.0646667,0 42,4.70983333 42,10.5 L42,26.25 C42,27.2148333 41.1762222,28 40.1666667,28 L39.5555556,28 C38.5447778,28 37.7222222,27.2148333 37.7222222,26.25 C37.7222222,25.928 37.4472222,25.6666667 37.1111111,25.6666667 C36.7737778,25.6666667 36.5,25.928 36.5,26.25 C36.5,27.2148333 35.6762222,28 34.6666667,28 L33.7875595,28 C33.9231237,27.7386276 34,27.440796 34,27.125 L34,15.5419474 C34.4179209,15.829397 34.9373501,16 35.5,16 C36.87875,16 38,14.9737143 38,13.7142857 L38,10.2857143 C38,9.024 36.87875,8 35.5,8 C34.8795959,8 34.3117409,8.20696221 33.8745769,8.54944241 C33.345851,4.99827218 31.1877741,1.98767863 28.2077373,0.342607262 Z M34,12 C34.5522847,12 35,12.4477153 35,13 C35,13.5522847 34.5522847,14 34,14 L34,12 Z" id="Combined-Shape" fill="#35BB90" opacity="0.5"></path>
                        <path d="M18.2077373,0.342607262 C19.0996911,0.119065318 20.0355398,0 21,0 C27.0646667,0 32,4.70983333 32,10.5 L32,26.25 C32,27.2148333 31.1762222,28 30.1666667,28 L29.5555556,28 C28.5447778,28 27.7222222,27.2148333 27.7222222,26.25 C27.7222222,25.928 27.4472222,25.6666667 27.1111111,25.6666667 C26.7737778,25.6666667 26.5,25.928 26.5,26.25 C26.5,27.2148333 25.6762222,28 24.6666667,28 L23.7875595,28 C23.9231237,27.7386276 24,27.440796 24,27.125 L24,15.5419474 C24.4179209,15.829397 24.9373501,16 25.5,16 C26.87875,16 28,14.9737143 28,13.7142857 L28,10.2857143 C28,9.024 26.87875,8 25.5,8 C24.8795959,8 24.3117409,8.20696221 23.8745769,8.54944241 C23.345851,4.99827218 21.1877741,1.98767863 18.2077373,0.342607262 Z M24,12 C24.5522847,12 25,12.4477153 25,13 C25,13.5522847 24.5522847,14 24,14 L24,12 Z" id="Combined-Shape" fill="#EBA900" opacity="0.699999988"></path>
                        <path d="M11,1.0658141e-14 C4.93411111,1.0658141e-14 0,4.70983333 0,10.5 L0,26.25 C0,27.2148333 0.822555556,28 1.83333333,28 L2.44444444,28 C3.454,28 4.27777778,27.2148333 4.27777778,26.25 C4.27777778,25.928 4.55155556,25.6666667 4.88888889,25.6666667 C5.225,25.6666667 5.5,25.928 5.5,26.25 C5.5,27.2148333 6.32255556,28 7.33333333,28 L8.55555556,28 C9.56511111,28 10.3888889,27.2148333 10.3888889,26.25 C10.3888889,25.928 10.6626667,25.6666667 11,25.6666667 C11.3361111,25.6666667 11.6111111,25.928 11.6111111,26.25 C11.6111111,27.2148333 12.4336667,28 13.4444444,28 L14.6666667,28 C15.6762222,28 16.5,27.2148333 16.5,26.25 C16.5,25.928 16.7737778,25.6666667 17.1111111,25.6666667 C17.4472222,25.6666667 17.7222222,25.928 17.7222222,26.25 C17.7222222,27.2148333 18.5447778,28 19.5555556,28 L20.1666667,28 C21.1762222,28 22,27.2148333 22,26.25 L22,10.5 C22,4.70983333 17.0646667,1.0658141e-14 11,1.0658141e-14 Z M9,13.7142857 C9,14.9737143 7.8775,16 6.5,16 C5.12125,16 4,14.9737143 4,13.7142857 L4,12.5714286 L4,10.2857143 C4,9.024 5.12125,8 6.5,8 C7.8775,8 9,9.024 9,10.2857143 L9,13.7142857 Z M18,13.7142857 C18,14.9737143 16.87875,16 15.5,16 C14.12,16 13,14.9737143 13,13.7142857 L13,12.5714286 L13,10.2857143 C13,9.024 14.12,8 15.5,8 C16.87875,8 18,9.024 18,10.2857143 L18,13.7142857 Z M14,14 C14.5522847,14 15,13.5522847 15,13 C15,12.4477153 14.5522847,12 14,12 C13.4477153,12 13,12.4477153 13,13 C13,13.5522847 13.4477153,14 14,14 Z M5,14 C5.55228475,14 6,13.5522847 6,13 C6,12.4477153 5.55228475,12 5,12 C4.44771525,12 4,12.4477153 4,13 C4,13.5522847 4.44771525,14 5,14 Z" fill="#E40964"></path>
                    </g>
                </g>
            </g>
        </g>
    </g>
</svg>