<?xml version="1.0" encoding="UTF-8" standalone="no"?>
<svg width="40px" height="40px" viewBox="0 0 40 40" version="1.1" xmlns="http://www.w3.org/2000/svg" xmlns:xlink="http://www.w3.org/1999/xlink">
    <!-- Generator: Sketch 40.3 (33839) - http://www.bohemiancoding.com/sketch -->
    <title>logo</title>
    <desc>Created with Sketch.</desc>
    <defs></defs>
    <g id="Landing" stroke="none" stroke-width="1" fill="none" fill-rule="evenodd">
        <g id="SnapSlack-—-Landing" transform="translate(-220.000000, -830.000000)">
            <g id="footer" transform="translate(220.000000, 830.000000)">
                <g id="logo">
                    <path d="M38.3258501,14.5020211 C34.2023659,0.757713428 28.2463287,-2.44933433 14.5020211,1.67414988 C0.757713428,5.79763409 -2.44933433,11.7536713 1.67414988,25.4979789 C5.79763409,39.2422866 11.7536713,42.4493343 25.4979789,38.3258501 C39.2422866,34.2023659 42.4493343,28.2463287 38.3258501,14.5020211 L38.3258501,14.5020211 Z" id="Fill-11" fill="#3C444C"></path>
                    <g id="ghost" transform="translate(7.000000, 13.000000)" fill="#FFFFFF">
                        <path d="M19.1038686,0.171303631 C19.5498455,0.0595326592 20.0177699,0 20.5,0 C23.5323333,0 26,2.35491667 26,5.25 L26,13.125 C26,13.6074167 25.5881111,14 25.0833333,14 L24.7777778,14 C24.2723889,14 23.8611111,13.6074167 23.8611111,13.125 C23.8611111,12.964 23.7236111,12.8333333 23.5555556,12.8333333 C23.3868889,12.8333333 23.25,12.964 23.25,13.125 C23.25,13.6074167 22.8381111,14 22.3333333,14 L21.8937798,14 C21.9615619,13.8693138 22,13.720398 22,13.5625 L22,7.77097368 C22.2089605,7.91469852 22.4686751,8 22.75,8 C23.439375,8 24,7.48685714 24,6.85714286 L24,5.14285714 C24,4.512 23.439375,4 22.75,4 C22.439798,4 22.1558704,4.1034811 21.9372885,4.27472121 C21.6729255,2.49913609 20.593887,0.993839316 19.1038686,0.171303631 Z M22,6 C22.2761424,6 22.5,6.22385763 22.5,6.5 C22.5,6.77614237 22.2761424,7 22,7 L22,6 Z" id="Combined-Shape" opacity="0.300000012"></path>
                        <path d="M14.1038686,0.171303631 C14.5498455,0.0595326592 15.0177699,0 15.5,0 C18.5323333,0 21,2.35491667 21,5.25 L21,13.125 C21,13.6074167 20.5881111,14 20.0833333,14 L19.7777778,14 C19.2723889,14 18.8611111,13.6074167 18.8611111,13.125 C18.8611111,12.964 18.7236111,12.8333333 18.5555556,12.8333333 C18.3868889,12.8333333 18.25,12.964 18.25,13.125 C18.25,13.6074167 17.8381111,14 17.3333333,14 L16.8937798,14 C16.9615619,13.8693138 17,13.720398 17,13.5625 L17,7.77097368 C17.2089605,7.91469852 17.4686751,8 17.75,8 C18.439375,8 19,7.48685714 19,6.85714286 L19,5.14285714 C19,4.512 18.439375,4 17.75,4 C17.439798,4 17.1558704,4.1034811 16.9372885,4.27472121 C16.6729255,2.49913609 15.593887,0.993839316 14.1038686,0.171303631 Z M17,6 C17.2761424,6 17.5,6.22385763 17.5,6.5 C17.5,6.77614237 17.2761424,7 17,7 L17,6 Z" id="Combined-Shape" opacity="0.5"></path>
                        <path d="M9.10386864,0.171303631 C9.54984554,0.0595326592 10.0177699,0 10.5,0 C13.5323333,0 16,2.35491667 16,5.25 L16,13.125 C16,13.6074167 15.5881111,14 15.0833333,14 L14.7777778,14 C14.2723889,14 13.8611111,13.6074167 13.8611111,13.125 C13.8611111,12.964 13.7236111,12.8333333 13.5555556,12.8333333 C13.3868889,12.8333333 13.25,12.964 13.25,13.125 C13.25,13.6074167 12.8381111,14 12.3333333,14 L11.8937798,14 C11.9615619,13.8693138 12,13.720398 12,13.5625 L12,7.77097368 C12.2089605,7.91469852 12.4686751,8 12.75,8 C13.439375,8 14,7.48685714 14,6.85714286 L14,5.14285714 C14,4.512 13.439375,4 12.75,4 C12.439798,4 12.1558704,4.1034811 11.9372885,4.27472121 C11.6729255,2.49913609 10.593887,0.993839316 9.10386864,0.171303631 Z M12,6 C12.2761424,6 12.5,6.22385763 12.5,6.5 C12.5,6.77614237 12.2761424,7 12,7 L12,6 Z" id="Combined-Shape" opacity="0.699999988"></path>
                        <path d="M5.5,5.32907052e-15 C2.46705556,5.32907052e-15 0,2.35491667 0,5.25 L0,13.125 C0,13.6074167 0.411277778,14 0.916666667,14 L1.22222222,14 C1.727,14 2.13888889,13.6074167 2.13888889,13.125 C2.13888889,12.964 2.27577778,12.8333333 2.44444444,12.8333333 C2.6125,12.8333333 2.75,12.964 2.75,13.125 C2.75,13.6074167 3.16127778,14 3.66666667,14 L4.27777778,14 C4.78255556,14 5.19444444,13.6074167 5.19444444,13.125 C5.19444444,12.964 5.33133333,12.8333333 5.5,12.8333333 C5.66805556,12.8333333 5.80555556,12.964 5.80555556,13.125 C5.80555556,13.6074167 6.21683333,14 6.72222222,14 L7.33333333,14 C7.83811111,14 8.25,13.6074167 8.25,13.125 C8.25,12.964 8.38688889,12.8333333 8.55555556,12.8333333 C8.72361111,12.8333333 8.86111111,12.964 8.86111111,13.125 C8.86111111,13.6074167 9.27238889,14 9.77777778,14 L10.0833333,14 C10.5881111,14 11,13.6074167 11,13.125 L11,5.25 C11,2.35491667 8.53233333,5.32907052e-15 5.5,5.32907052e-15 Z M4.5,6.85714286 C4.5,7.48685714 3.93875,8 3.25,8 C2.560625,8 2,7.48685714 2,6.85714286 L2,6.28571429 L2,5.14285714 C2,4.512 2.560625,4 3.25,4 C3.93875,4 4.5,4.512 4.5,5.14285714 L4.5,6.85714286 Z M9,6.85714286 C9,7.48685714 8.439375,8 7.75,8 C7.06,8 6.5,7.48685714 6.5,6.85714286 L6.5,6.28571429 L6.5,5.14285714 C6.5,4.512 7.06,4 7.75,4 C8.439375,4 9,4.512 9,5.14285714 L9,6.85714286 Z M7,7 C7.27614237,7 7.5,6.77614237 7.5,6.5 C7.5,6.22385763 7.27614237,6 7,6 C6.72385763,6 6.5,6.22385763 6.5,6.5 C6.5,6.77614237 6.72385763,7 7,7 Z M2.5,7 C2.77614237,7 3,6.77614237 3,6.5 C3,6.22385763 2.77614237,6 2.5,6 C2.22385763,6 2,6.22385763 2,6.5 C2,6.77614237 2.22385763,7 2.5,7 Z"></path>
                    </g>
                </g>
            </g>
        </g>
    </g>
</svg>